<?xml version="1.0" encoding="utf-8"?>
<!-- Generator: Adobe Illustrator 23.0.1, SVG Export Plug-In . SVG Version: 6.00 Build 0)  -->
<svg version="1.1" id="Layer_1" xmlns="http://www.w3.org/2000/svg" xmlns:xlink="http://www.w3.org/1999/xlink" x="0px" y="0px"
	 viewBox="0 0 731 128" style="enable-background:new 0 0 731 128;" xml:space="preserve">
<style type="text/css">
	.st0{fill:none;}
	.st1{fill:#522796;}
</style>
<g>
	<g>
		<path class="st0" d="M121.89-97.57c19.92,0,36.12-16.2,36.12-36.12c0-19.92-16.2-36.12-36.12-36.12s-36.12,16.2-36.12,36.12
			C85.77-113.78,101.97-97.57,121.89-97.57z M121.89-166.81c18.29,0,33.12,14.83,33.12,33.12c0,18.29-14.83,33.12-33.12,33.12
			c-18.29,0-33.12-14.83-33.12-33.12C88.77-151.98,103.6-166.81,121.89-166.81z"/>
		<path class="st1" d="M121.89-100.58c18.29,0,33.12-14.83,33.12-33.12c0-18.29-14.83-33.12-33.12-33.12
			c-18.29,0-33.12,14.83-33.12,33.12C88.77-115.4,103.6-100.58,121.89-100.58z M102.04-120.24h6.11v-26.53h-6.11v-6.87h6.87v-5.92
			h7.25v5.92h3.82v-5.92h6.68v5.92h2.82c5.72,0,10.35,4.63,10.35,10.35l0,0c0,4.44-3.45,8.06-7.82,8.35h0.07
			c5.33,0,9.66,4.32,9.66,9.66v0.52c0,6.29-5.1,11.39-11.39,11.39h-3.69v5.53h-6.68v-5.53h-3.82v5.53h-7.25v-5.53h-6.87V-120.24z"/>
		<path class="st1" d="M128.28-120.24c2.9,0,5.25-2.35,5.25-5.25c0-2.9-2.35-5.25-5.25-5.25h-1.62h-10.5v10.5h10.5H128.28z"/>
		<path class="st1" d="M127.42-137.61c2.53,0,4.58-2.05,4.58-4.58s-2.05-4.58-4.58-4.58h-0.76h-10.5v9.16h10.5H127.42z"/>
		<path class="st1" d="M121.89-179.86c14.31,0,27.59,6.51,36.42,17.86l0.33,0.43l0.44-0.32c0.41-0.3,0.83-0.58,1.27-0.84l0.54-0.33
			l-0.39-0.5c-9.33-12.05-23.41-18.96-38.62-18.96c-26.92,0-48.83,21.9-48.83,48.83c0,26.92,21.9,48.83,48.83,48.83
			c14.09,0,27.49-6.1,36.77-16.72l0.51-0.58l-0.71-0.3c-0.48-0.21-0.96-0.43-1.41-0.68l-0.39-0.22l-0.3,0.33
			c-8.77,9.86-21.34,15.52-34.47,15.52c-25.46,0-46.17-20.71-46.17-46.17C75.73-159.15,96.43-179.86,121.89-179.86z"/>
		<path class="st1" d="M145.16-104.15c-0.05-0.02-0.1-0.03-0.14-0.05c-6.48,5.21-14.69,8.34-23.63,8.34
			c-20.86,0-37.83-16.97-37.83-37.83c0-20.86,16.97-37.83,37.83-37.83c9.71,0,18.56,3.69,25.26,9.72c1.17-0.68,2.39-1.27,3.64-1.76
			c-7.48-7.24-17.67-11.71-28.9-11.71c-22.97,0-41.59,18.62-41.59,41.59c0,22.97,18.62,41.59,41.59,41.59
			c10.34,0,19.78-3.79,27.05-10.04C147.26-102.68,146.16-103.36,145.16-104.15z"/>
	</g>
	<g>
		<path class="st1" d="M233.26-148.38l-4.01,3.08c-2.21-2.88-4.87-5.07-7.97-6.56c-3.1-1.49-6.51-2.23-10.22-2.23
			c-4.06,0-7.82,0.97-11.28,2.92c-3.46,1.95-6.14,4.57-8.04,7.85c-1.9,3.29-2.85,6.98-2.85,11.09c0,6.2,2.13,11.38,6.38,15.53
			c4.25,4.15,9.62,6.23,16.1,6.23c7.13,0,13.09-2.79,17.88-8.37l4.01,3.04c-2.54,3.23-5.7,5.72-9.5,7.49
			c-3.79,1.76-8.03,2.65-12.71,2.65c-8.9,0-15.92-2.96-21.07-8.89c-4.31-5-6.47-11.05-6.47-18.13c0-7.45,2.61-13.72,7.84-18.8
			c5.22-5.09,11.77-7.63,19.63-7.63c4.75,0,9.04,0.94,12.87,2.82C227.68-154.41,230.82-151.77,233.26-148.38z"/>
		<path class="st1" d="M243.74-157.83h10.14c5.65,0,9.48,0.23,11.48,0.69c3.02,0.69,5.48,2.18,7.37,4.45
			c1.89,2.27,2.84,5.07,2.84,8.4c0,2.77-0.65,5.21-1.95,7.31c-1.3,2.1-3.17,3.69-5.59,4.76c-2.42,1.07-5.77,1.62-10.03,1.65
			l18.3,23.63H270l-18.3-23.63h-2.88v23.63h-5.09V-157.83z M248.83-152.84v17.3l8.77,0.07c3.4,0,5.91-0.32,7.54-0.97
			s2.9-1.68,3.81-3.1c0.91-1.42,1.37-3,1.37-4.76c0-1.71-0.46-3.26-1.39-4.65c-0.92-1.4-2.14-2.39-3.64-2.99
			c-1.5-0.6-4-0.9-7.48-0.9H248.83z"/>
		<path class="st1" d="M281.03-157.83h5.85l13.02,20.99l12.82-20.99h5.88l-16.12,26.57v24.32h-5.02v-24.32L281.03-157.83z"/>
		<path class="st1" d="M326.94-157.83h10.14c5.81,0,9.73,0.25,11.76,0.76c2.91,0.71,5.28,2.19,7.13,4.41
			c1.84,2.23,2.77,5.02,2.77,8.39c0,3.39-0.9,6.19-2.7,8.39s-4.28,3.68-7.44,4.44c-2.31,0.55-6.62,0.83-12.94,0.83h-3.63v23.66
			h-5.08V-157.83z M332.02-152.84v17.26l8.61,0.1c3.48,0,6.03-0.32,7.65-0.95c1.61-0.63,2.88-1.66,3.81-3.07
			c0.92-1.42,1.38-3,1.38-4.75c0-1.7-0.46-3.26-1.38-4.68c-0.92-1.42-2.14-2.42-3.65-3.02c-1.51-0.6-3.98-0.9-7.42-0.9H332.02z"/>
		<path class="st1" d="M363.85-152.84v-4.98h27.88v4.98h-11.35v45.91h-5.19v-45.91H363.85z"/>
		<path class="st1" d="M423.3-159.11c7.71,0,14.16,2.57,19.35,7.71c5.19,5.14,7.79,11.47,7.79,18.99c0,7.45-2.59,13.77-7.77,18.96
			c-5.18,5.19-11.5,7.78-18.95,7.78c-7.54,0-13.92-2.58-19.11-7.75c-5.19-5.17-7.79-11.42-7.79-18.75c0-4.89,1.18-9.42,3.55-13.6
			c2.37-4.17,5.59-7.44,9.67-9.81C414.12-157.92,418.54-159.11,423.3-159.11z M423.52-154.16c-3.77,0-7.33,0.98-10.71,2.94
			s-6.01,4.6-7.9,7.93c-1.89,3.32-2.84,7.03-2.84,11.11c0,6.05,2.1,11.15,6.29,15.32c4.19,4.17,9.25,6.25,15.16,6.25
			c3.95,0,7.6-0.96,10.96-2.87c3.36-1.92,5.98-4.54,7.87-7.86c1.88-3.32,2.82-7.02,2.82-11.08c0-4.04-0.94-7.69-2.82-10.96
			c-1.88-3.27-4.53-5.88-7.95-7.84S427.36-154.16,423.52-154.16z"/>
		<path class="st1" d="M480.39-157.83h10.03c4.04,0,7.14,0.48,9.3,1.44s3.88,2.43,5.14,4.41c1.26,1.98,1.89,4.19,1.89,6.61
			c0,2.26-0.55,4.32-1.65,6.17s-2.72,3.36-4.85,4.51c2.64,0.9,4.68,1.95,6.1,3.17s2.54,2.68,3.33,4.39s1.19,3.58,1.19,5.59
			c0,4.08-1.49,7.54-4.48,10.36c-2.99,2.83-6.99,4.24-12.02,4.24h-13.98V-157.83z M485.38-152.84v16.29h2.91
			c3.54,0,6.13-0.33,7.8-0.99s2.98-1.7,3.95-3.11s1.46-2.99,1.46-4.72c0-2.33-0.82-4.16-2.45-5.48c-1.63-1.33-4.22-1.99-7.78-1.99
			H485.38z M485.38-131.43v19.51h6.31c3.72,0,6.45-0.36,8.18-1.09s3.12-1.86,4.18-3.41s1.58-3.22,1.58-5.02
			c0-2.26-0.74-4.23-2.22-5.92c-1.48-1.68-3.51-2.84-6.09-3.46c-1.73-0.42-4.75-0.62-9.05-0.62H485.38z"/>
		<path class="st1" d="M545.17-159.11c7.71,0,14.16,2.57,19.35,7.71c5.19,5.14,7.79,11.47,7.79,18.99c0,7.45-2.59,13.77-7.77,18.96
			c-5.18,5.19-11.5,7.78-18.95,7.78c-7.54,0-13.92-2.58-19.11-7.75s-7.79-11.42-7.79-18.75c0-4.89,1.18-9.42,3.55-13.6
			c2.37-4.17,5.59-7.44,9.67-9.81C536-157.92,540.41-159.11,545.17-159.11z M545.39-154.16c-3.77,0-7.33,0.98-10.71,2.94
			s-6.01,4.6-7.9,7.93s-2.84,7.03-2.84,11.11c0,6.05,2.1,11.15,6.29,15.32c4.19,4.17,9.25,6.25,15.16,6.25
			c3.95,0,7.6-0.96,10.96-2.87c3.36-1.92,5.98-4.54,7.87-7.86c1.88-3.32,2.82-7.02,2.82-11.08c0-4.04-0.94-7.69-2.82-10.96
			c-1.88-3.27-4.53-5.88-7.95-7.84S549.23-154.16,545.39-154.16z"/>
		<path class="st1" d="M606.74-159.11c7.71,0,14.16,2.57,19.35,7.71c5.19,5.14,7.79,11.47,7.79,18.99c0,7.45-2.59,13.77-7.77,18.96
			c-5.18,5.19-11.5,7.78-18.95,7.78c-7.55,0-13.92-2.58-19.11-7.75c-5.19-5.17-7.79-11.42-7.79-18.75c0-4.89,1.18-9.42,3.55-13.6
			c2.37-4.17,5.59-7.44,9.68-9.81C597.57-157.92,601.99-159.11,606.74-159.11z M606.97-154.16c-3.77,0-7.33,0.98-10.71,2.94
			c-3.37,1.96-6.01,4.6-7.9,7.93c-1.89,3.32-2.84,7.03-2.84,11.11c0,6.05,2.1,11.15,6.29,15.32c4.19,4.17,9.24,6.25,15.16,6.25
			c3.95,0,7.61-0.96,10.97-2.87c3.36-1.92,5.98-4.54,7.87-7.86c1.88-3.32,2.82-7.02,2.82-11.08c0-4.04-0.94-7.69-2.82-10.96
			c-1.88-3.27-4.53-5.88-7.95-7.84C614.43-153.18,610.8-154.16,606.97-154.16z"/>
		<path class="st1" d="M641.77-106.94l7.29-50.89h0.83l20.69,41.75l20.49-41.75h0.81l7.32,50.89h-4.99l-5.03-36.39l-17.99,36.39
			h-1.3l-18.21-36.67l-5,36.67H641.77z"/>
	</g>
	<g>
		<g>
			<path class="st1" d="M29.51-70.78c-0.36,0-0.71-0.13-1-0.38c-0.62-0.55-0.68-1.5-0.13-2.13l22.53-25.35
				c0.53-0.6,1.44-0.68,2.07-0.17l13.95,11.18l15.95-16.19c0.58-0.59,1.54-0.6,2.13-0.02c0.59,0.58,0.6,1.54,0.02,2.13L68.12-84.54
				c-0.54,0.55-1.41,0.6-2.02,0.12L52.21-95.56L30.63-71.28C30.33-70.95,29.92-70.78,29.51-70.78z"/>
			<path class="st1" d="M154.44-168.77c-0.37,0-0.75-0.14-1.04-0.42c-0.6-0.57-0.62-1.53-0.05-2.13l15.53-16.26
				c0.55-0.58,1.46-0.62,2.07-0.1l12.67,10.86l25.88-25.89c0.59-0.59,1.54-0.59,2.13,0s0.59,1.54,0,2.13l-26.86,26.88
				c-0.56,0.56-1.45,0.59-2.05,0.08l-12.65-10.84l-14.54,15.23C155.23-168.92,154.83-168.77,154.44-168.77z"/>
			<path class="st1" d="M211.11-189.57c-0.83,0-1.51-0.67-1.51-1.51v-9.57h-9.18c-0.83,0-1.51-0.67-1.51-1.51
				c0-0.83,0.67-1.51,1.51-1.51h10.69c0.83,0,1.51,0.67,1.51,1.51v11.07C212.62-190.24,211.94-189.57,211.11-189.57z"/>
		</g>
		<path class="st1" d="M29.65-85.82c-0.83,0-1.51-0.67-1.51-1.51v-33.42c0-0.83,0.67-1.51,1.51-1.51c0.83,0,1.51,0.67,1.51,1.51
			v33.42C31.16-86.5,30.49-85.82,29.65-85.82z"/>
		<path class="st1" d="M40.92-96.7c-0.83,0-1.51-0.67-1.51-1.51v-33.42c0-0.83,0.67-1.51,1.51-1.51s1.51,0.67,1.51,1.51v33.42
			C42.43-97.38,41.75-96.7,40.92-96.7z"/>
		<path class="st1" d="M51.8-107.19c-0.83,0-1.51-0.67-1.51-1.51v-33.42c0-0.83,0.67-1.51,1.51-1.51c0.83,0,1.51,0.67,1.51,1.51
			v33.42C53.31-107.87,52.63-107.19,51.8-107.19z"/>
		<path class="st1" d="M153.99-183.35c-0.83,0-1.51-0.67-1.51-1.51v-20.98c0-0.83,0.67-1.51,1.51-1.51c0.83,0,1.51,0.67,1.51,1.51
			v20.98C155.5-184.03,154.83-183.35,153.99-183.35z"/>
		<path class="st1" d="M142.34-189.96c-0.83,0-1.51-0.67-1.51-1.51v-9.71c0-0.83,0.67-1.51,1.51-1.51c0.83,0,1.51,0.67,1.51,1.51
			v9.71C143.84-190.63,143.17-189.96,142.34-189.96z"/>
		<path class="st1" d="M164.87-192.68c-0.83,0-1.51-0.67-1.51-1.51v-23.31c0-0.83,0.67-1.51,1.51-1.51c0.83,0,1.51,0.67,1.51,1.51
			v23.31C166.38-193.35,165.71-192.68,164.87-192.68z"/>
		<path class="st1" d="M175.75-192.68c-0.83,0-1.51-0.67-1.51-1.51v-29.92c0-0.83,0.67-1.51,1.51-1.51c0.83,0,1.51,0.67,1.51,1.51
			v29.92C177.26-193.35,176.59-192.68,175.75-192.68z"/>
		<path class="st1" d="M186.63-189.96c-0.83,0-1.51-0.67-1.51-1.51v-19.04c0-0.83,0.67-1.51,1.51-1.51c0.83,0,1.51,0.67,1.51,1.51
			v19.04C188.14-190.63,187.47-189.96,186.63-189.96z"/>
		<path class="st1" d="M63.07-102.53c-0.83,0-1.51-0.67-1.51-1.51v-16.71c0-0.83,0.67-1.51,1.51-1.51c0.83,0,1.51,0.67,1.51,1.51
			v16.71C64.58-103.21,63.9-102.53,63.07-102.53z"/>
	</g>
</g>
<g>
	<g>
		<path class="st1" d="M346.53,54.88c-0.82,0.49-1.94,0.74-3.32,0.74h-4.08c-0.48,0-0.87,0.38-0.87,0.85c0,0.47,0.39,0.85,0.87,0.85
			h4.08c1.7,0,3.12-0.33,4.22-0.99c1.24-0.74,1.86-2.02,1.86-3.8c0-2.49-1.33-3.56-2.45-4.01c-0.02-0.01-0.04-0.01-0.06-0.02
			c-1.19-0.39-2.7-0.59-4.49-0.59h-7.76c-0.48,0-0.87,0.38-0.87,0.85v7.71c0,0.47,0.39,0.85,0.87,0.85c0.48,0,0.87-0.38,0.87-0.85
			v-6.86h6.89c1.59,0,2.9,0.17,3.91,0.49c0.59,0.25,1.36,0.77,1.36,2.43C347.56,53.7,347.23,54.46,346.53,54.88z"/>
		<path class="st1" d="M333.68,68.74c0,0.47,0.39,0.85,0.87,0.85c0.48,0,0.87-0.38,0.87-0.85v-5.62l7.9,0
			c1.4,0.01,2.48,0.19,3.21,0.52c1.21,0.54,1.77,1.49,1.77,2.98c0,2.7-1.4,3.38-1.86,3.6c-0.74,0.35-1.82,0.53-3.23,0.53h-6.26
			c-0.48,0-0.87,0.38-0.87,0.85s0.39,0.85,0.87,0.85h6.26c1.7,0,3-0.23,4-0.71c1.87-0.91,2.83-2.64,2.83-5.13
			c0-2.14-0.96-3.71-2.78-4.52c-0.97-0.43-2.25-0.65-3.92-0.67h-8.78c-0.48,0-0.87,0.38-0.87,0.85V68.74z"/>
		<path class="st1" d="M331.69,32.97c0,1.48,1.03,2.72,2.42,3.1v5.77h-6.52c-0.48,0-0.87,0.38-0.87,0.85v31.39
			c0,0.47,0.39,0.85,0.87,0.85c0.48,0,0.87-0.38,0.87-0.85V43.53h6.51c0,0,0.01,0,0.01,0c0,0,0.01,0,0.01,0h9.26c0,0,0.01,0,0.01,0
			c0,0,0.01,0,0.01,0h0.55c4.04,0.06,6.92,1.2,8.55,3.37c0.98,1.33,1.47,2.96,1.47,4.84c0,1.92-0.49,3.47-1.45,4.61
			c-0.54,0.64-1.36,1.23-2.45,1.78c-0.31,0.15-0.49,0.47-0.47,0.81c0.02,0.34,0.24,0.63,0.57,0.75c1.65,0.59,2.86,1.49,3.69,2.75
			c0.83,1.26,1.25,2.83,1.25,4.67c0,1.9-0.49,3.62-1.45,5.12c0,0-0.01,0.01-0.01,0.01c-0.61,0.99-1.39,1.84-2.31,2.52
			c-1.03,0.77-2.27,1.31-3.68,1.6c-1.48,0.3-3.12,0.46-4.86,0.46h-12.25c-0.48,0-0.87,0.38-0.87,0.85c0,0.47,0.39,0.85,0.87,0.85
			h2.69v10.65c-1.39,0.38-2.42,1.62-2.42,3.1c0,1.78,1.48,3.23,3.29,3.23c1.81,0,3.29-1.45,3.29-3.23c0-1.48-1.03-2.72-2.42-3.1
			V78.51h7.55v5.32c-1.39,0.38-2.42,1.62-2.42,3.1c0,1.78,1.48,3.23,3.29,3.23c1.81,0,3.29-1.45,3.29-3.23
			c0-1.48-1.03-2.72-2.42-3.1v-5.36c1.32-0.06,2.58-0.22,3.76-0.46c1.67-0.34,3.14-0.98,4.37-1.91c1.09-0.8,2.02-1.81,2.74-2.99
			c1.14-1.77,1.72-3.8,1.72-6.02c0-2.17-0.51-4.05-1.53-5.59c-0.74-1.12-1.74-2.04-2.99-2.72c0.61-0.42,1.13-0.87,1.53-1.35
			c1.23-1.45,1.85-3.36,1.85-5.69c0-2.24-0.61-4.21-1.81-5.84c-1.93-2.58-5.18-3.94-9.65-4.06V30.39c1.39-0.38,2.42-1.62,2.42-3.1
			c0-1.78-1.48-3.23-3.29-3.23c-1.81,0-3.29,1.45-3.29,3.23c0,1.48,1.03,2.72,2.42,3.1v11.44h-7.55v-5.77
			c1.39-0.38,2.42-1.62,2.42-3.1c0-1.78-1.48-3.23-3.29-3.23C333.16,29.74,331.69,31.19,331.69,32.97z M336.53,92.26
			c0,0.84-0.7,1.53-1.56,1.53c-0.86,0-1.56-0.68-1.56-1.53s0.7-1.53,1.56-1.53C335.83,90.73,336.53,91.42,336.53,92.26z
			 M345.81,86.93c0,0.84-0.7,1.53-1.56,1.53c-0.86,0-1.56-0.68-1.56-1.53c0-0.84,0.7-1.53,1.56-1.53
			C345.11,85.41,345.81,86.09,345.81,86.93z M342.7,27.3c0-0.84,0.7-1.53,1.56-1.53c0.86,0,1.56,0.68,1.56,1.53
			c0,0.84-0.7,1.53-1.56,1.53C343.4,28.82,342.7,28.14,342.7,27.3z M336.53,32.97c0,0.84-0.7,1.53-1.56,1.53
			c-0.86,0-1.56-0.68-1.56-1.53c0-0.84,0.7-1.53,1.56-1.53C335.83,31.44,336.53,32.12,336.53,32.97z"/>
		<path class="st1" d="M318.44,67.09c-0.46,0.14-0.71,0.61-0.57,1.06c0.19,0.6,0.41,1.21,0.65,1.79c0.14,0.33,0.46,0.53,0.8,0.53
			c0.11,0,0.22-0.02,0.32-0.06c0.44-0.17,0.66-0.67,0.48-1.1c-0.22-0.54-0.42-1.1-0.6-1.66C319.38,67.2,318.9,66.95,318.44,67.09z"
			/>
		<path class="st1" d="M320.65,72.4c-0.41,0.25-0.54,0.77-0.28,1.17c1.45,2.32,3.29,4.37,5.46,6.09c0.16,0.13,0.35,0.19,0.54,0.19
			c0.25,0,0.5-0.11,0.67-0.32c0.3-0.36,0.24-0.9-0.13-1.19c-2.01-1.59-3.72-3.5-5.07-5.66C321.59,72.28,321.06,72.15,320.65,72.4z"
			/>
		<path class="st1" d="M361.18,71.2c-2.6,4.98-6.98,8.77-12.32,10.7c-0.45,0.16-0.68,0.65-0.51,1.09c0.13,0.34,0.46,0.56,0.81,0.56
			c0.1,0,0.2-0.02,0.3-0.05c5.75-2.07,10.46-6.16,13.26-11.52c0.22-0.42,0.05-0.93-0.38-1.14C361.92,70.62,361.39,70.78,361.18,71.2
			z"/>
		<path class="st1" d="M363.84,66.7c0.06,0.01,0.12,0.02,0.18,0.02c0.4,0,0.76-0.27,0.85-0.67c0.35-1.61,0.52-3.27,0.52-4.93
			c0-2.41-0.36-4.78-1.08-7.06c-0.14-0.45-0.63-0.7-1.08-0.56c-0.46,0.14-0.71,0.61-0.57,1.06c0.67,2.11,1.01,4.32,1.01,6.56
			c0,1.54-0.16,3.08-0.48,4.58C363.07,66.15,363.37,66.6,363.84,66.7z"/>
		<path class="st1" d="M318.28,39.37c-5.77,5.86-8.95,13.58-8.95,21.74c0,0.36,0.23,0.68,0.58,0.8l7.61,2.62
			c0.09,0.03,0.19,0.05,0.29,0.05c0.19,0,0.38-0.06,0.54-0.19c0.23-0.18,0.35-0.47,0.32-0.76c-0.1-0.83-0.15-1.68-0.15-2.53
			c0-5.39,2-10.59,5.63-14.63c0.32-0.35,0.28-0.89-0.08-1.2c-0.36-0.31-0.91-0.28-1.22,0.08c-3.91,4.35-6.07,9.95-6.07,15.75
			c0,0.46,0.01,0.92,0.04,1.39l-5.76-1.99c0.15-7.49,3.14-14.56,8.46-19.96c0.33-0.34,0.32-0.88-0.02-1.2
			C319.16,39.03,318.61,39.03,318.28,39.37z"/>
		<path class="st1" d="M323.01,86.73c0.15,0.1,0.32,0.15,0.49,0.15c0.27,0,0.54-0.13,0.71-0.37c0.27-0.39,0.17-0.92-0.22-1.18
			c-5.13-3.49-9.1-8.56-11.19-14.3c-0.16-0.44-0.66-0.67-1.11-0.51c-0.45,0.16-0.69,0.64-0.52,1.09
			C313.42,77.76,317.51,82.99,323.01,86.73z"/>
		<path class="st1" d="M378.09,70.48c-0.46-0.13-0.94,0.14-1.07,0.59c-1.5,5.23-4.24,10.16-7.93,14.25
			c-3.52,3.92-7.93,7.1-12.77,9.23l-4.02-4.3c1.73-0.64,3.4-1.44,4.99-2.38c0.41-0.24,0.54-0.76,0.3-1.17
			c-0.25-0.4-0.78-0.53-1.19-0.29c-1.86,1.09-3.85,1.99-5.9,2.66c-0.28,0.09-0.49,0.31-0.57,0.59c-0.07,0.28,0,0.58,0.2,0.79
			l5.33,5.69c0.17,0.18,0.4,0.27,0.64,0.27c0.11,0,0.23-0.02,0.34-0.07c5.3-2.22,10.12-5.65,13.95-9.91
			c3.85-4.29,6.72-9.44,8.3-14.92C378.82,71.08,378.55,70.61,378.09,70.48z"/>
		<path class="st1" d="M371.11,61.1c-0.05,3.91-0.85,7.71-2.37,11.28c-1.35,3.18-3.24,6.08-5.6,8.62c-0.32,0.35-0.3,0.88,0.06,1.2
			c0.17,0.15,0.38,0.22,0.58,0.22c0.24,0,0.47-0.09,0.64-0.28c2.5-2.69,4.49-5.75,5.92-9.11c1.61-3.77,2.45-7.78,2.5-11.91
			c0.06-4.77-1.02-9.37-3.21-13.68c-0.21-0.42-0.73-0.59-1.16-0.38c-0.43,0.21-0.6,0.72-0.39,1.14
			C370.15,52.27,371.17,56.61,371.11,61.1z"/>
		<path class="st1" d="M348.16,40.09c5.24,1.7,9.67,5.22,12.45,9.92c0.15,0.25,0.42,0.41,0.71,0.42c0.01,0,0.03,0,0.04,0
			c0.28,0,0.54-0.13,0.71-0.36l4.6-6.38c0.22-0.3,0.21-0.7-0.01-1c-4-5.25-9.7-9.23-16.06-11.23c-0.46-0.14-0.94,0.1-1.09,0.55
			c-0.15,0.45,0.11,0.93,0.56,1.07c5.82,1.83,11.06,5.42,14.82,10.14l-3.47,4.82c-3.01-4.5-7.48-7.88-12.71-9.57
			c-0.45-0.15-0.94,0.1-1.09,0.54C347.46,39.46,347.7,39.94,348.16,40.09z"/>
		<path class="st1" d="M378.42,61.11c0,0.47,0.39,0.85,0.87,0.85c0.48,0,0.87-0.38,0.87-0.85c0-9.55-3.6-18.7-10.14-25.76
			c-0.32-0.35-0.87-0.37-1.22-0.06c-0.35,0.32-0.38,0.85-0.06,1.2C374.97,43.25,378.42,51.99,378.42,61.11z"/>
		<path class="st1" d="M351.88,26.05c2.79,0.82,5.48,1.97,8,3.42c0.14,0.08,0.29,0.12,0.44,0.12c0.3,0,0.59-0.15,0.75-0.42
			c0.24-0.41,0.1-0.93-0.31-1.16c-2.64-1.51-5.46-2.72-8.38-3.58c-0.46-0.14-0.94,0.12-1.08,0.57
			C351.16,25.44,351.42,25.91,351.88,26.05z"/>
		<path class="st1" d="M309.94,40.27c0.27,0,0.54-0.12,0.71-0.36c6.04-8.34,15.41-13.85,25.7-15.13c0.47-0.06,0.81-0.48,0.75-0.95
			c-0.06-0.47-0.49-0.8-0.97-0.74c-10.77,1.34-20.58,7.11-26.9,15.83c-0.28,0.38-0.19,0.91,0.2,1.19
			C309.59,40.22,309.76,40.27,309.94,40.27z"/>
		<path class="st1" d="M307.11,43.95c0.13,0.07,0.27,0.1,0.41,0.1c0.31,0,0.6-0.16,0.76-0.44c0.18-0.32,0.37-0.65,0.56-0.97
			c0.24-0.4,0.1-0.93-0.31-1.16c-0.41-0.24-0.94-0.1-1.19,0.3c-0.2,0.34-0.4,0.68-0.59,1.02C306.54,43.21,306.69,43.72,307.11,43.95
			z"/>
		<path class="st1" d="M306.88,77.83c0.43-0.2,0.62-0.71,0.41-1.13c-2.35-4.89-3.54-10.14-3.54-15.59c0-4.4,0.79-8.71,2.34-12.8
			c0.17-0.44-0.06-0.93-0.51-1.09c-0.45-0.16-0.95,0.06-1.11,0.5c-1.63,4.28-2.45,8.78-2.45,13.39c0,5.7,1.25,11.19,3.71,16.31
			c0.15,0.31,0.46,0.49,0.78,0.49C306.64,77.91,306.76,77.89,306.88,77.83z"/>
		<path class="st1" d="M350.56,96.54c-3.07,0.79-6.26,1.19-9.47,1.19c-10.92,0-21.26-4.67-28.37-12.82
			c-0.31-0.36-0.86-0.4-1.22-0.09c-0.36,0.31-0.41,0.84-0.09,1.2c7.44,8.52,18.26,13.41,29.69,13.41c3.36,0,6.69-0.42,9.91-1.24
			c0.46-0.12,0.74-0.58,0.62-1.04C351.49,96.69,351.02,96.42,350.56,96.54z"/>
		<path class="st1" d="M308.07,67.2c0,1.38,1.14,2.5,2.55,2.5c1.41,0,2.55-1.12,2.55-2.5c0-1.38-1.14-2.5-2.55-2.5
			C309.22,64.7,308.07,65.83,308.07,67.2z M310.62,66.4c0.45,0,0.82,0.36,0.82,0.8c0,0.44-0.37,0.8-0.82,0.8
			c-0.45,0-0.82-0.36-0.82-0.8C309.81,66.76,310.17,66.4,310.62,66.4z"/>
		<path class="st1" d="M311.29,81.21c0-1.38-1.14-2.5-2.55-2.5c-1.41,0-2.55,1.12-2.55,2.5c0,1.38,1.14,2.5,2.55,2.5
			C310.15,83.71,311.29,82.59,311.29,81.21z M308.74,82.01c-0.45,0-0.82-0.36-0.82-0.8c0-0.44,0.37-0.8,0.82-0.8
			c0.45,0,0.82,0.36,0.82,0.8C309.56,81.65,309.19,82.01,308.74,82.01z"/>
		<path class="st1" d="M360.49,81.99c-1.41,0-2.55,1.12-2.55,2.5c0,1.38,1.14,2.5,2.55,2.5c1.41,0,2.55-1.12,2.55-2.5
			C363.04,83.11,361.89,81.99,360.49,81.99z M360.49,85.29c-0.45,0-0.82-0.36-0.82-0.8c0-0.44,0.37-0.8,0.82-0.8
			c0.45,0,0.82,0.36,0.82,0.8C361.31,84.93,360.94,85.29,360.49,85.29z"/>
		<path class="st1" d="M322.24,39.75c1.41,0,2.55-1.12,2.55-2.5c0-1.38-1.14-2.5-2.55-2.5c-1.41,0-2.55,1.12-2.55,2.5
			C319.69,38.63,320.83,39.75,322.24,39.75z M322.24,36.44c0.45,0,0.82,0.36,0.82,0.8c0,0.44-0.37,0.8-0.82,0.8
			c-0.45,0-0.82-0.36-0.82-0.8C321.42,36.8,321.79,36.44,322.24,36.44z"/>
		<path class="st1" d="M365.38,34.7c1.41,0,2.55-1.12,2.55-2.5c0-1.38-1.14-2.5-2.55-2.5c-1.41,0-2.55,1.12-2.55,2.5
			C362.83,33.58,363.98,34.7,365.38,34.7z M365.38,31.4c0.45,0,0.82,0.36,0.82,0.8c0,0.44-0.37,0.8-0.82,0.8
			c-0.45,0-0.82-0.36-0.82-0.8C364.57,31.76,364.93,31.4,365.38,31.4z"/>
		<path class="st1" d="M376.05,66.93c0,1.38,1.14,2.5,2.55,2.5c1.41,0,2.55-1.12,2.55-2.5c0-1.38-1.14-2.5-2.55-2.5
			C377.2,64.43,376.05,65.56,376.05,66.93z M379.42,66.93c0,0.44-0.37,0.8-0.82,0.8c-0.45,0-0.82-0.36-0.82-0.8s0.37-0.8,0.82-0.8
			C379.06,66.13,379.42,66.49,379.42,66.93z"/>
	</g>
	<path class="st1" d="M71.73,39.52l-5.67,4.35c-3.13-4.07-6.88-7.15-11.26-9.25c-4.38-2.1-9.19-3.15-14.43-3.15
		c-5.73,0-11.04,1.38-15.92,4.13c-4.88,2.75-8.67,6.45-11.35,11.09s-4.03,9.86-4.03,15.65c0,8.76,3,16.07,9.01,21.93
		c6.01,5.86,13.58,8.79,22.73,8.79c10.06,0,18.48-3.94,25.25-11.82l5.67,4.3c-3.58,4.56-8.05,8.08-13.41,10.57
		c-5.36,2.49-11.34,3.74-17.95,3.74c-12.57,0-22.48-4.18-29.74-12.55C4.54,80.22,1.5,71.69,1.5,61.7c0-10.52,3.69-19.36,11.06-26.54
		c7.37-7.18,16.61-10.77,27.71-10.77c6.71,0,12.76,1.33,18.17,3.98C63.85,31.02,68.28,34.74,71.73,39.52z"/>
	<path class="st1" d="M86.52,26.19h14.31c7.98,0,13.38,0.33,16.21,0.98c4.26,0.98,7.73,3.07,10.4,6.28c2.67,3.21,4,7.16,4,11.86
		c0,3.91-0.92,7.35-2.76,10.32c-1.84,2.97-4.47,5.21-7.89,6.72c-3.42,1.52-8.14,2.29-14.16,2.32l25.83,33.36h-8.88L97.76,64.68H93.7
		v33.36h-7.18V26.19z M93.7,33.23v24.42l12.38,0.1c4.79,0,8.34-0.46,10.64-1.37c2.3-0.91,4.09-2.37,5.38-4.37
		c1.29-2,1.93-4.24,1.93-6.72c0-2.41-0.65-4.6-1.96-6.57c-1.3-1.97-3.02-3.38-5.14-4.22c-2.12-0.85-5.64-1.27-10.57-1.27H93.7z"/>
	<path class="st1" d="M139.17,26.19h8.26l18.38,29.63l18.09-29.63h8.3L169.45,63.7v34.33h-7.08V63.7L139.17,26.19z"/>
	<path class="st1" d="M203.97,26.19h14.31c8.2,0,13.74,0.36,16.6,1.07c4.1,1.01,7.45,3.08,10.06,6.23c2.6,3.14,3.91,7.09,3.91,11.84
		c0,4.79-1.27,8.73-3.81,11.84c-2.54,3.11-6.04,5.2-10.5,6.28c-3.26,0.78-9.34,1.17-18.27,1.17h-5.13v33.4h-7.18V26.19z
		 M211.15,33.23v24.37l12.16,0.15c4.92,0,8.51-0.45,10.79-1.34c2.28-0.89,4.07-2.34,5.37-4.34c1.3-2,1.95-4.23,1.95-6.7
		c0-2.4-0.65-4.6-1.95-6.6c-1.3-2-3.02-3.42-5.15-4.26c-2.13-0.84-5.62-1.27-10.48-1.27H211.15z"/>
	<path class="st1" d="M256.08,33.23v-7.03h39.36v7.03h-16.02v64.8h-7.33v-64.8H256.08z"/>
	<path class="st1" d="M420.61,26.19h14.16c5.7,0,10.08,0.68,13.14,2.03c3.06,1.35,5.48,3.43,7.25,6.23c1.77,2.8,2.66,5.91,2.66,9.33
		c0,3.19-0.78,6.1-2.33,8.72c-1.55,2.62-3.84,4.75-6.85,6.37c3.73,1.27,6.6,2.76,8.62,4.47c2.01,1.71,3.58,3.78,4.7,6.2
		c1.12,2.43,1.68,5.05,1.68,7.89c0,5.76-2.11,10.64-6.32,14.63c-4.22,3.99-9.87,5.98-16.97,5.98h-19.73V26.19z M427.64,33.23v23
		h4.11c4.99,0,8.66-0.46,11.01-1.39c2.35-0.93,4.21-2.39,5.58-4.39c1.37-2,2.06-4.22,2.06-6.67c0-3.29-1.15-5.87-3.45-7.74
		c-2.3-1.87-5.96-2.81-10.99-2.81H427.64z M427.64,63.45V91h8.9c5.25,0,9.1-0.51,11.54-1.54c2.45-1.03,4.41-2.63,5.89-4.81
		s2.23-4.54,2.23-7.08c0-3.19-1.04-5.97-3.13-8.35c-2.09-2.38-4.95-4-8.6-4.88c-2.45-0.59-6.71-0.88-12.77-0.88H427.64z"/>
	<path class="st1" d="M512.06,24.39c10.88,0,19.99,3.63,27.32,10.89c7.33,7.26,11,16.2,11,26.81c0,10.52-3.66,19.44-10.97,26.76
		c-7.31,7.33-16.23,10.99-26.75,10.99c-10.65,0-19.65-3.65-26.98-10.94c-7.33-7.29-11-16.12-11-26.47c0-6.9,1.67-13.3,5.01-19.19
		c3.34-5.89,7.89-10.51,13.66-13.85S505.34,24.39,512.06,24.39z M512.37,31.37c-5.32,0-10.35,1.39-15.11,4.16
		c-4.76,2.77-8.48,6.5-11.15,11.19s-4.01,9.92-4.01,15.69c0,8.54,2.96,15.75,8.88,21.63s13.05,8.82,21.4,8.82
		c5.58,0,10.74-1.35,15.48-4.06c4.74-2.7,8.45-6.4,11.1-11.09c2.66-4.69,3.99-9.9,3.99-15.64c0-5.7-1.33-10.86-3.99-15.47
		s-6.4-8.3-11.23-11.07C522.91,32.75,517.79,31.37,512.37,31.37z"/>
	<path class="st1" d="M598.99,24.39c10.88,0,19.99,3.63,27.32,10.89c7.33,7.26,11,16.2,11,26.81c0,10.52-3.66,19.44-10.97,26.76
		c-7.31,7.33-16.23,10.99-26.75,10.99c-10.65,0-19.65-3.65-26.98-10.94c-7.33-7.29-11-16.12-11-26.47c0-6.9,1.67-13.3,5.01-19.19
		c3.34-5.89,7.89-10.51,13.66-13.85C586.03,26.06,592.27,24.39,598.99,24.39z M599.3,31.37c-5.32,0-10.35,1.39-15.11,4.16
		c-4.76,2.77-8.48,6.5-11.15,11.19s-4.01,9.92-4.01,15.69c0,8.54,2.96,15.75,8.88,21.63s13.05,8.82,21.4,8.82
		c5.58,0,10.74-1.35,15.48-4.06c4.74-2.7,8.45-6.4,11.1-11.09c2.66-4.69,3.99-9.9,3.99-15.64c0-5.7-1.33-10.86-3.99-15.47
		s-6.4-8.3-11.23-11.07C609.84,32.75,604.72,31.37,599.3,31.37z"/>
	<path class="st1" d="M648.43,98.03l10.29-71.84h1.17l29.2,58.95l28.92-58.95h1.15l10.34,71.84h-7.04l-7.1-51.38l-25.4,51.38h-1.83
		l-25.7-51.77l-7.06,51.77H648.43z"/>
	<g>
		<g>
			<path class="st1" d="M273.88,115.39c-0.28,0-0.56-0.1-0.78-0.29c-0.49-0.42-0.53-1.15-0.1-1.63l17.63-19.39
				c0.42-0.46,1.13-0.52,1.62-0.13l10.91,8.55l12.48-12.38c0.46-0.45,1.2-0.46,1.67-0.01c0.46,0.45,0.47,1.18,0.01,1.63
				l-13.23,13.13c-0.42,0.42-1.11,0.46-1.58,0.09l-10.87-8.52L274.76,115C274.52,115.26,274.2,115.39,273.88,115.39z"/>
			<path class="st1" d="M371.61,39.3c-0.29,0-0.59-0.11-0.81-0.32c-0.47-0.44-0.49-1.17-0.04-1.63l12.15-12.44
				c0.43-0.44,1.14-0.48,1.62-0.08l9.91,8.31l20.25-19.8c0.46-0.45,1.21-0.45,1.67,0c0.46,0.45,0.46,1.18,0,1.63l-21.02,20.56
				c-0.44,0.43-1.13,0.45-1.6,0.06l-9.9-8.29l-11.38,11.65C372.24,39.18,371.93,39.3,371.61,39.3z"/>
			<path class="st1" d="M415.96,23.39c-0.65,0-1.18-0.52-1.18-1.15v-7.32h-7.18c-0.65,0-1.18-0.52-1.18-1.15
				c0-0.64,0.53-1.15,1.18-1.15h8.36c0.65,0,1.18,0.52,1.18,1.15v8.47C417.13,22.87,416.61,23.39,415.96,23.39z"/>
		</g>
	</g>
</g>
</svg>
